<?xml version="1.0" encoding="UTF-8"?>
<svg id="Layer_1" data-name="Layer 1" xmlns="http://www.w3.org/2000/svg" viewBox="0 150 900 600">
  <defs>
    <style>
      .cls-1 {
        fill: #0065d0;
        stroke-width: 0px;
      }
    </style>
  </defs>
  <path class="cls-1" d="M848.49,346.15c-6.76,5.03-13.51,10.07-20.5,15.27-3.7-3.92-7.21-7.67-10.75-11.38-57.94-60.74-154.73-60.8-212.75-.11-1.95,2.04-3.83,4.16-5.51,6.42-6.66,8.93-6.74,15.76-.71,25.18,2.13,3.32,3.86,6.89,6.19,11.09,28.76-43.13,68.32-64.73,120.37-59.99,33.7,3.07,60.31,19.72,82.14,45.89-7.28,5.5-14.34,10.83-21.37,16.14-43.38-49.49-109.72-41.5-142.8-5.97-34.49,37.04-34.21,93.92,1.42,130,31.74,32.15,93.28,44.81,142.6-8.68,7.1,5.18,14.27,10.41,21.67,15.81-20.89,25.88-46.52,43.31-79.64,46.99-47.23,5.24-86.81-9.65-116.08-48.01-16.91-22.16-23.38-47.9-24.17-75.52-1-35.01-12.33-66.42-35.38-93.04-25.83-29.83-59.04-45.53-98.08-48.94-54.85-4.78-97.81,16.87-130.93,59.84-7.02,9.1-5.21,7.74-13.94,2.83-32.67-18.38-65.19-37.03-97.94-55.27-37.85-21.08-96.14-1.11-112.36,38.24-11.17,27.09-5.63,52.66,15.77,72.64,14.18,13.25,31.14,21.81,48.85,29.2,14.02,5.85,28.16,11.44,42.06,17.59,25.16,11.12,51.82,30.4,48.28,61.68-1.07,9.41-5.68,17.92-12.65,24.28-3.61,3.3-7.75,5.99-12.15,8.1-16.19,7.77-33.47,9.48-51.05,7.85-30.19-2.8-56.87-13.79-78.75-35.3-1.88-1.85-3.55-3.91-5.79-6.39,6.46-4.26,12.61-8.33,18.97-12.53,12.83,13.01,27.69,22.17,45.01,26.86,16.42,4.45,33.12,7.52,50.1,3.43,4.71-1.14,9.51-3.28,13.43-6.11,7.62-5.5,11.47-15.01,7.71-23.97-4.73-11.28-16.09-17.65-26.65-22.56-21.38-9.94-43.13-19.11-64.57-28.95-14.12-6.48-27.36-14.05-39.07-24.41-49.63-43.93-34.49-131.92,31.17-156.89,33.72-12.83,67.03-11.33,99.08,5.85,26.31,14.1,52.39,28.64,78.58,42.97,1.43.79,2.9,1.51,4.28,2.22,68.05-75.9,192.3-79.06,264.43,3.61,2.93-3.13,5.79-6.3,8.78-9.35,17.34-17.68,37.82-32.27,60.82-41.62,27.38-11.13,57.26-15.36,86.57-11.23,24.76,3.49,49.01,11.23,70.38,24.39,13.56,8.35,25.8,18.75,36.38,30.65,2.95,3.32,5.71,6.81,8.56,10.22v1Z"/>
  <path class="cls-1" d="M825.89,538.48c-2.28,2.41-4.41,4.71-6.58,6.97-33.75,35.07-74.49,52.34-123.48,47.93-14.65-1.32-29.08-4.91-42.64-10.62s-25.73-13.22-36.79-22.49c-11.01-9.24-20.64-20.1-28.48-32.15s-14.03-25.6-17.96-39.61c-2.09-7.45-3.64-15.07-4.37-22.78-1.44-15.35-.15-30.68-4.06-45.9-3.53-13.75-9.49-26.84-17.5-38.55s-17.81-21.74-29.13-29.98-24.33-14.66-37.93-18.59c-11-3.18-22.43-4.77-33.88-4.77-44.22,0-83.04,23.6-104.52,58.86,0,0,23.4,13.51,23.41,13.51,16.89-27.38,47.26-45.61,81.8-45.37,51.37.36,93.61,42.09,94.57,93.46,1.02,54.88-44.61,99.57-99.81,96.98-49.87-2.33-89.8-43.49-90.7-93.41-.15-8.47.8-16.71,2.74-24.56.52-2.12,1.11-4.21,1.78-6.27l-23.81-13.74c-1.15,3.07-2.18,6.19-3.08,9.36-.01.02-.01.03-.01.04-3.02,10.62-4.64,21.83-4.64,33.4,0,65.56,51.84,119.22,116.68,122.15,1.85.09,3.72.13,5.59.13,44.79,0,84.04-24.21,105.35-60.25.81-.89,2.26-.68,2.79.4,2.08,4.23,6.56,13.45,8.78,18.6.65,1.53.34,4.24-.64,5.58-39.21,53.36-109.93,73.69-171.27,48.96-48.31-19.47-78.63-54.09-87.09-106.31-4.36-26.94-1.81-53.64,4.04-80.08.78-3.52-.18-4.97-3.05-6.63-8.79-5.1-17.31-10.65-26.09-15.75l-1.18-.69-3.3-1.9-6.59-3.8-7.37-4.26c-14.43-8.34-28.79-17.18-43.97-24.13-16.3-7.46-34.01-10.64-51.9-9.26-19.28,1.5-33.38,12.33-39.01,30.31-5.89,18.8-.97,35.32,14.3,47.69,11.84,9.6,25.13,16.6,39.39,21.92,20.51,7.64,41.08,15.27,59.73,26.97,7.85,4.91,15.25,10.6,22.51,16.36,28.37,22.51,29.64,68.93,4.29,94.11-12.25,12.17-29.2,17.82-45.85,20.76-19.37,3.42-39.52,4.75-59,1.39-25.17-4.35-48.37-15.94-68.01-32.12-2.26-1.86-4.48-3.78-6.65-5.75-3.06-2.79-6.19-5.5-9.29-8.24-7.64,4.76-15.07,9.39-22.49,14.01v1c1.44,1.58,2.93,3.12,4.32,4.75,18.61,21.92,41.38,37.78,68.91,46.21,37.52,11.49,75.4,10.89,112.95.57,24.86-6.83,46.61-24.83,58.59-47.58,1.47-2.79,2.74-5.68,4.08-8.53,2.06-4.4,2.73-4.48,5.96-.65,1.29,1.52,2.54,3.07,3.85,4.57,43.14,49.31,97.49,68.1,161.76,58.54,41.17-6.13,74.28-27.17,101.69-57.86,1.26-1.42,2.56-2.8,3.88-4.22,92.85,102.14,225.93,62.3,268.65-4.01-6.67-4.83-13.35-9.68-20.26-14.68ZM273.18,418.49c-.82,8.9-2.27,17.74-3.56,27.44-8.46-3.65-16.9-7.37-25.4-10.92-15.79-6.55-31.73-12.72-47.51-19.28-7.89-3.28-15.74-6.65-23.51-10.21-7.07-3.24-14.37-6.35-20.12-11.73-13.19-12.35-5.43-31.91,11.87-34.3,12.86-1.77,26.61,2.91,38.19,8.13,15.17,6.84,29.93,14.55,44.27,22.99,10.26,6.04,27.12,13.36,25.78,27.89Z"/>
</svg>