<?xml version="1.0" standalone="no"?>
<!DOCTYPE svg PUBLIC "-//W3C//DTD SVG 20010904//EN"
 "http://www.w3.org/TR/2001/REC-SVG-20010904/DTD/svg10.dtd">
<svg version="1.0" xmlns="http://www.w3.org/2000/svg"
 width="180.000000pt" height="180.000000pt" viewBox="0 0 180.000000 180.000000"
 preserveAspectRatio="xMidYMid meet">

<g transform="translate(0.000000,180.000000) scale(0.100000,-0.100000)"
fill="#000000" stroke="none">
<path d="M520 1605 l-345 -123 -3 -43 c-5 -64 15 -227 44 -357 73 -330 225
-635 415 -836 83 -88 229 -196 264 -196 36 0 148 82 246 179 190 190 331 453
413 773 44 171 57 254 59 379 l2 101 -350 124 c-192 68 -361 124 -375 123 -14
0 -180 -56 -370 -124z m690 -76 c173 -61 317 -113 319 -115 2 -2 -3 -61 -12
-132 -38 -298 -142 -582 -300 -822 -56 -84 -233 -265 -289 -294 l-36 -19 -64
46 c-278 198 -507 657 -558 1121 -6 54 -10 99 -8 101 3 2 618 222 628 224 3 1
147 -49 320 -110z"/>
<path d="M795 1241 c-135 -22 -283 -88 -370 -165 l-50 -44 44 -45 44 -45 61
46 c145 111 326 154 497 118 92 -20 160 -51 245 -112 l72 -52 44 45 43 45 -48
42 c-63 56 -184 120 -277 145 -84 24 -230 34 -305 22z"/>
<path d="M804 965 c-72 -16 -154 -54 -204 -95 l-35 -29 47 -48 47 -47 23 21
c13 12 50 34 83 50 49 22 74 27 135 27 61 0 86 -5 135 -27 33 -16 70 -38 83
-50 l23 -21 47 47 47 48 -35 29 c-51 42 -132 79 -208 96 -81 17 -108 16 -188
-1z"/>
<path d="M842 677 c-70 -75 31 -180 112 -116 35 27 36 86 3 117 -32 30 -87 29
-115 -1z"/>
</g>
</svg>
